<?xml version="1.0" encoding="utf-8"?>
<!-- Generator: Adobe Illustrator 26.5.0, SVG Export Plug-In . SVG Version: 6.00 Build 0)  -->
<svg version="1.1" id="Layer_1" xmlns="http://www.w3.org/2000/svg" xmlns:xlink="http://www.w3.org/1999/xlink" x="0px" y="0px"
	 viewBox="0 0 99.21 99.21" style="enable-background:new 0 0 99.21 99.21;" xml:space="preserve">
<style type="text/css">
	.st0{fill:#E30B17;}
	.st1{fill:#1D242C;}
	.st2{fill:#FFFFFF;}
</style>
<g>
	<path class="st2" d="M48.61,8.09c-22.93,0-41.52,18.59-41.52,41.52c0,22.93,18.59,41.52,41.52,41.52
		c22.93,0,41.52-18.59,41.52-41.52C90.13,26.67,71.54,8.09,48.61,8.09z M63,58.95c0,8.88-6.25,14.59-14.32,14.59
		c-8.27,0-14.46-5.72-14.46-14.59V39.79h6.99v19.7c0,4.57,3.16,7.53,7.46,7.53c4.1,0,7.26-2.96,7.26-7.53v-19.7H63V58.95z M63,32.73
		H34.22v-7.06H63V32.73z"/>
	<rect x="34.22" y="25.67" class="st0" width="28.78" height="7.06"/>
</g>
</svg>
