<?xml version="1.0" encoding="utf-8"?>
<!-- Generator: Adobe Illustrator 26.5.0, SVG Export Plug-In . SVG Version: 6.00 Build 0)  -->
<svg version="1.1" id="Layer_1" xmlns="http://www.w3.org/2000/svg" xmlns:xlink="http://www.w3.org/1999/xlink" x="0px" y="0px"
	 viewBox="0 0 297.64 99.21" style="enable-background:new 0 0 297.64 99.21;" xml:space="preserve">
<style type="text/css">
	.st0{fill:#E30B17;}
	.st1{fill:#1D242C;}
	.st2{fill:#FFFFFF;}
</style>
<g>
	<rect x="168.78" y="25.67" class="st0" width="28.78" height="7.06"/>
	<g>
		<path class="st2" d="M135.73,72.8c-2.22,0.47-4.17,0.74-5.85,0.74c-7.6,0-12.17-3.77-12.17-11.5V45.91h-5.38v-6.12h5.38v-8.67
			h7.13v8.67h9.82v6.12h-9.82v15.53c0,4.24,2.22,5.72,6.52,5.72c1.01,0,2.42-0.13,4.37-0.34V72.8z"/>
		<path class="st2" d="M161.56,46.04h-2.15c-5.58,0-9.68,3.3-9.68,9.14V72.8h-7.06V39.79h6.59v4.3c2.35-2.96,5.85-4.64,9.62-4.64
			c1.01,0,1.88,0.13,2.69,0.34V46.04z"/>
		<path class="st2" d="M168.78,39.79h6.99v19.7c0,4.57,3.16,7.53,7.46,7.53c4.1,0,7.26-2.96,7.26-7.53v-19.7h7.06v19.16
			c0,8.88-6.25,14.59-14.32,14.59c-8.27,0-14.46-5.72-14.46-14.59V39.79z"/>
		<path class="st2" d="M220.01,40.22c0.38,0.07,0.66,0.1,0.84,0.1v2.96h-1.68c-1.84,0-3.61,0.41-5.31,1.24
			c-1.7,0.83-3.08,2.03-4.14,3.6c-1.05,1.57-1.58,3.43-1.58,5.58v19.1h-3.36V40.33H208v5.51c1.16-1.88,2.69-3.3,4.57-4.27
			c1.88-0.96,3.94-1.45,6.19-1.45C219.21,40.12,219.63,40.16,220.01,40.22"/>
		<path class="st2" d="M231.02,72.8h-3.36V40.33h3.36V72.8z M231.46,26.34c0.56,0.58,0.84,1.28,0.84,2.08c0,0.81-0.28,1.5-0.84,2.08
			c-0.56,0.58-1.27,0.87-2.12,0.87c-0.81,0-1.5-0.29-2.08-0.87c-0.58-0.58-0.87-1.28-0.87-2.08c0-0.81,0.29-1.5,0.87-2.08
			c0.58-0.58,1.28-0.87,2.08-0.87C230.19,25.46,230.9,25.76,231.46,26.34"/>
		<path class="st2" d="M254.65,41.07c1.77,0.94,3.26,2.2,4.47,3.77l-2.22,2.15c-2.47-2.78-5.29-4.17-8.47-4.17
			c-1.88,0-3.45,0.44-4.71,1.31c-1.26,0.87-1.88,2.14-1.88,3.8c0,1.39,0.47,2.48,1.41,3.26c0.94,0.79,2.51,1.65,4.71,2.59l3.03,1.34
			c2.78,1.21,4.88,2.51,6.29,3.9c1.41,1.39,2.12,3.21,2.12,5.45c0,2.87-1.05,5.09-3.16,6.66c-2.11,1.57-4.66,2.35-7.67,2.35
			c-2.69,0-5.09-0.62-7.19-1.85c-2.11-1.23-3.86-2.86-5.25-4.88l2.35-2.22c1.48,1.84,3.03,3.26,4.64,4.27
			c1.61,1.01,3.43,1.51,5.45,1.51c2.06,0,3.8-0.49,5.21-1.48c1.41-0.99,2.12-2.4,2.12-4.24c0-1.12-0.28-2.06-0.84-2.82
			c-0.56-0.76-1.27-1.39-2.12-1.88c-0.85-0.49-2.08-1.1-3.7-1.81l-2.96-1.28c-2.6-1.12-4.58-2.32-5.95-3.6
			c-1.37-1.28-2.05-2.97-2.05-5.08c0-2.6,1.01-4.66,3.03-6.19c2.02-1.52,4.46-2.29,7.33-2.29
			C250.88,39.65,252.88,40.12,254.65,41.07"/>
	</g>
	<path class="st2" d="M290.55,72.8h-4.44l-16.21-18.29l14.59-14.19h4.57l-14.86,14.26L290.55,72.8z M265.54,22.37h3.36V72.8h-3.36
		V22.37z"/>
	<g>
		<path class="st2" d="M48.61,8.09c-22.93,0-41.52,18.59-41.52,41.52c0,22.93,18.59,41.52,41.52,41.52
			c22.93,0,41.52-18.59,41.52-41.52C90.13,26.67,71.54,8.09,48.61,8.09z M63,58.95c0,8.88-6.25,14.59-14.32,14.59
			c-8.27,0-14.46-5.72-14.46-14.59V39.79h6.99v19.7c0,4.57,3.16,7.53,7.46,7.53c4.1,0,7.26-2.96,7.26-7.53v-19.7H63V58.95z
			 M63,32.73H34.22v-7.06H63V32.73z"/>
		<rect x="34.22" y="25.67" class="st0" width="28.78" height="7.06"/>
	</g>
</g>
</svg>
